<svg width="82" height="22" viewBox="0 0 82 22" fill="none" xmlns="http://www.w3.org/2000/svg">
<path d="M34.99 17.165C32.05 17.165 30.7 15.785 30.565 13.64H32.89C32.995 14.6 33.4 15.395 34.99 15.395C36.055 15.395 36.76 14.81 36.76 13.97C36.76 13.115 36.31 12.815 34.735 12.575C31.99 12.215 30.865 11.39 30.865 9.32C30.865 7.49 32.395 6.125 34.765 6.125C37.18 6.125 38.59 7.205 38.785 9.335H36.55C36.4 8.36 35.83 7.91 34.765 7.91C33.7 7.91 33.16 8.405 33.16 9.125C33.16 9.89 33.505 10.25 35.155 10.49C37.75 10.82 39.085 11.525 39.085 13.745C39.085 15.65 37.525 17.165 34.99 17.165ZM44.2547 17.165C41.8847 17.165 40.1597 15.68 40.1597 13.175V13.055C40.1597 10.58 41.9147 8.975 44.1947 8.975C46.2197 8.975 48.0197 10.16 48.0197 12.965V13.565H42.3647C42.4247 14.87 43.1297 15.62 44.3147 15.62C45.3197 15.62 45.8147 15.185 45.9497 14.525H48.0047C47.7497 16.22 46.3997 17.165 44.2547 17.165ZM42.3947 12.23H45.9047C45.8297 11.045 45.2297 10.475 44.1947 10.475C43.2197 10.475 42.5597 11.12 42.3947 12.23ZM51.6316 17.165C50.2066 17.165 49.0066 16.475 49.0066 14.825C49.0066 12.995 50.6866 12.305 53.0866 12.305H53.9716V11.99C53.9716 11.06 53.6866 10.55 52.6966 10.55C51.8416 10.55 51.4516 10.985 51.3616 11.66H49.3066C49.4416 9.8 50.9116 8.975 52.8316 8.975C54.7516 8.975 56.1166 9.755 56.1166 11.885V17H54.0016V16.055C53.5516 16.685 52.8616 17.165 51.6316 17.165ZM52.2766 15.65C53.2366 15.65 53.9716 15.125 53.9716 14.255V13.595H53.1316C51.8716 13.595 51.1366 13.865 51.1366 14.705C51.1366 15.275 51.4816 15.65 52.2766 15.65ZM57.9834 17V9.155H60.1584V10.655C60.6534 9.605 61.4184 9.05 62.6934 9.035V11.06C61.0884 11.045 60.1584 11.57 60.1584 13.07V17H57.9834ZM67.5296 17.165C65.2346 17.165 63.4946 15.74 63.4946 13.175V13.055C63.4946 10.52 65.3096 8.975 67.5446 8.975C69.3596 8.975 71.0396 9.77 71.2346 12.02H69.1796C69.0296 11.105 68.4746 10.685 67.5896 10.685C66.4646 10.685 65.7146 11.525 65.7146 13.025V13.145C65.7146 14.72 66.4196 15.53 67.6346 15.53C68.5046 15.53 69.2096 15.02 69.3146 14.015H71.2796C71.1596 15.875 69.8096 17.165 67.5296 17.165ZM72.6465 17V5.6H74.8215V10.4C75.2115 9.62 76.0665 8.975 77.3715 8.975C78.9165 8.975 80.0115 9.905 80.0115 12.005V17H77.8365V12.32C77.8365 11.255 77.4165 10.745 76.4565 10.745C75.5265 10.745 74.8215 11.315 74.8215 12.47V17H72.6465Z" fill="#37424A"/>
<path fill-rule="evenodd" clip-rule="evenodd" d="M9.20449 0C4.12522 0 0 4.11798 0 9.20449C0 14.2838 4.11798 18.409 9.20449 18.409C11.165 18.409 12.9817 17.797 14.4742 16.7536L18.4275 20.7069L19.8417 19.2927L15.9827 15.4337C17.4894 13.795 18.409 11.6078 18.409 9.20449C18.409 4.11798 14.2838 0 9.20449 0ZM2 9.20449C2 5.22354 5.2288 2 9.20449 2C13.1802 2 16.409 5.22354 16.409 9.20449C16.409 13.1859 13.1859 16.409 9.20449 16.409C5.22354 16.409 2 13.1802 2 9.20449Z" fill="#37424A"/>
</svg>
