<svg width="363" height="52" viewBox="0 0 363 52" fill="none" xmlns="http://www.w3.org/2000/svg">
<path d="M-2.66902e-06 3.43323e-05C6.79438 29.4528 43.3732 51.9572 87.4959 51.9572L199.171 51.9571L199.171 2.69241e-05L-2.66902e-06 3.43323e-05Z" fill="#DFE0DB"/>
<path fill-rule="evenodd" clip-rule="evenodd" d="M111.063 52C66.1501 52 28.9161 29.482 22 0.011238L224.739 0.0112305L363.004 0.0112336V52H224.739L217.23 52C217.217 52 217.204 52 217.191 52L111.063 52Z" fill="#DFE0DB"/>
<path d="M105.56 31.3413C102.424 31.3413 100.984 29.8693 100.84 27.5813H103.32C103.432 28.6053 103.864 29.4533 105.56 29.4533C106.696 29.4533 107.448 28.8293 107.448 27.9333C107.448 27.0213 106.968 26.7013 105.288 26.4453C102.36 26.0613 101.16 25.1813 101.16 22.9733C101.16 21.0213 102.792 19.5653 105.32 19.5653C107.896 19.5653 109.4 20.7173 109.608 22.9893H107.224C107.064 21.9493 106.456 21.4693 105.32 21.4693C104.184 21.4693 103.608 21.9973 103.608 22.7653C103.608 23.5813 103.976 23.9653 105.736 24.2213C108.504 24.5733 109.928 25.3253 109.928 27.6933C109.928 29.7253 108.264 31.3413 105.56 31.3413ZM114.643 31.3253C112.883 31.3253 111.939 30.4293 111.939 28.6853V24.4453H110.867V22.7973H111.939V20.9893H114.243V22.7973H116.003V24.4453H114.243V28.4773C114.243 29.1493 114.579 29.4693 115.171 29.4693C115.523 29.4693 115.779 29.4213 116.051 29.3093V31.1013C115.731 31.2133 115.266 31.3253 114.643 31.3253ZM120.402 31.3413C118.77 31.3413 117.554 30.3813 117.554 28.1893V22.7973H119.858V27.8693C119.858 29.0053 120.322 29.5493 121.314 29.5493C122.29 29.5493 123.058 28.9413 123.058 27.7093V22.7973H125.362V31.1653H123.058V29.8533C122.626 30.7013 121.778 31.3413 120.402 31.3413ZM130.551 31.3413C128.519 31.3413 126.919 29.8853 126.919 27.1013V26.9733C126.919 24.2213 128.503 22.6053 130.599 22.6053C131.943 22.6053 132.775 23.1973 133.239 24.0453V19.0053H135.543V31.1653H133.239V29.7733C132.807 30.6213 131.783 31.3413 130.551 31.3413ZM131.239 29.5333C132.455 29.5333 133.303 28.7173 133.303 27.0213V26.8933C133.303 25.2293 132.567 24.3813 131.303 24.3813C130.007 24.3813 129.287 25.2613 129.287 26.9253V27.0533C129.287 28.7173 130.087 29.5333 131.239 29.5333ZM141.458 31.3413C138.93 31.3413 137.09 29.7573 137.09 27.0853V26.9573C137.09 24.3173 138.962 22.6053 141.394 22.6053C143.554 22.6053 145.474 23.8693 145.474 26.8613V27.5013H139.442C139.506 28.8933 140.258 29.6933 141.522 29.6933C142.594 29.6933 143.122 29.2293 143.266 28.5253H145.458C145.186 30.3333 143.746 31.3413 141.458 31.3413ZM139.474 26.0773H143.218C143.138 24.8133 142.498 24.2053 141.394 24.2053C140.354 24.2053 139.65 24.8933 139.474 26.0773ZM146.993 31.1653V22.7973H149.313V24.1253C149.729 23.2933 150.641 22.6053 152.033 22.6053C153.681 22.6053 154.849 23.5973 154.849 25.8373V31.1653H152.529V26.1733C152.529 25.0373 152.081 24.4933 151.057 24.4933C150.065 24.4933 149.313 25.1013 149.313 26.3333V31.1653H146.993ZM159.893 31.3253C158.133 31.3253 157.189 30.4293 157.189 28.6853V24.4453H156.117V22.7973H157.189V20.9893H159.493V22.7973H161.253V24.4453H159.493V28.4773C159.493 29.1493 159.829 29.4693 160.421 29.4693C160.773 29.4693 161.029 29.4213 161.301 29.3093V31.1013C160.981 31.2133 160.516 31.3253 159.893 31.3253ZM165.986 31.3413C163.73 31.3413 162.418 30.3493 162.338 28.5413H164.498C164.594 29.2933 164.962 29.7253 165.97 29.7253C166.866 29.7253 167.282 29.3893 167.282 28.8133C167.282 28.2373 166.786 27.9973 165.586 27.8213C163.362 27.4853 162.498 26.8453 162.498 25.2133C162.498 23.4693 164.098 22.6053 165.81 22.6053C167.666 22.6053 169.058 23.2773 169.266 25.1973H167.138C167.01 24.5093 166.626 24.1893 165.826 24.1893C165.074 24.1893 164.642 24.5413 164.642 25.0533C164.642 25.5813 165.042 25.7893 166.258 25.9653C168.354 26.2693 169.506 26.7973 169.506 28.5893C169.506 30.3973 168.194 31.3413 165.986 31.3413ZM171.729 33.1333L170.321 32.5413L171.729 28.5893L173.905 29.4053L171.729 33.1333ZM183.498 31.3413C180.362 31.3413 178.922 29.8693 178.778 27.5813H181.258C181.37 28.6053 181.802 29.4533 183.498 29.4533C184.634 29.4533 185.386 28.8293 185.386 27.9333C185.386 27.0213 184.906 26.7013 183.226 26.4453C180.298 26.0613 179.098 25.1813 179.098 22.9733C179.098 21.0213 180.73 19.5653 183.258 19.5653C185.834 19.5653 187.338 20.7173 187.546 22.9893H185.162C185.002 21.9493 184.394 21.4693 183.258 21.4693C182.122 21.4693 181.546 21.9973 181.546 22.7653C181.546 23.5813 181.914 23.9653 183.674 24.2213C186.442 24.5733 187.866 25.3253 187.866 27.6933C187.866 29.7253 186.202 31.3413 183.498 31.3413ZM192.58 31.3253C190.82 31.3253 189.876 30.4293 189.876 28.6853V24.4453H188.804V22.7973H189.876V20.9893H192.18V22.7973H193.94V24.4453H192.18V28.4773C192.18 29.1493 192.516 29.4693 193.108 29.4693C193.46 29.4693 193.716 29.4213 193.988 29.3093V31.1013C193.668 31.2133 193.204 31.3253 192.58 31.3253ZM197.889 31.3413C196.369 31.3413 195.089 30.6053 195.089 28.8453C195.089 26.8933 196.881 26.1573 199.441 26.1573H200.385V25.8213C200.385 24.8293 200.081 24.2853 199.025 24.2853C198.113 24.2853 197.697 24.7493 197.601 25.4693H195.409C195.553 23.4853 197.121 22.6053 199.169 22.6053C201.217 22.6053 202.673 23.4373 202.673 25.7093V31.1653H200.417V30.1573C199.937 30.8293 199.201 31.3413 197.889 31.3413ZM198.577 29.7253C199.601 29.7253 200.385 29.1653 200.385 28.2373V27.5333H199.489C198.145 27.5333 197.361 27.8213 197.361 28.7173C197.361 29.3253 197.729 29.7253 198.577 29.7253ZM205.049 31.1653V24.4453H203.945V22.7973H205.049V21.9333C205.049 19.9973 206.169 19.0053 208.025 19.0053C208.521 19.0053 208.841 19.0693 209.209 19.1813V20.9093C208.985 20.8453 208.713 20.7813 208.377 20.7813C207.657 20.7813 207.353 21.2293 207.353 21.8853V22.7973H210.089V21.8373C210.089 19.8853 211.225 18.9093 213.081 18.9093C213.577 18.9093 213.913 18.9573 214.281 19.0693V20.8133C214.057 20.7333 213.769 20.6693 213.433 20.6693C212.697 20.6693 212.393 21.1333 212.393 21.7733V22.7973H214.217V24.4453H212.393V31.1653H210.089V24.4453H207.353V31.1653H205.049ZM221.436 31.3413C219.916 31.3413 218.636 30.6053 218.636 28.8453C218.636 26.8933 220.428 26.1573 222.988 26.1573H223.932V25.8213C223.932 24.8293 223.628 24.2853 222.572 24.2853C221.66 24.2853 221.244 24.7493 221.148 25.4693H218.956C219.1 23.4853 220.668 22.6053 222.716 22.6053C224.764 22.6053 226.22 23.4373 226.22 25.7093V31.1653H223.964V30.1573C223.484 30.8293 222.748 31.3413 221.436 31.3413ZM222.124 29.7253C223.148 29.7253 223.932 29.1653 223.932 28.2373V27.5333H223.036C221.692 27.5333 220.908 27.8213 220.908 28.7173C220.908 29.3253 221.276 29.7253 222.124 29.7253ZM228.212 31.1653V22.7973H230.532V24.1253C230.948 23.2933 231.86 22.6053 233.252 22.6053C234.9 22.6053 236.068 23.5973 236.068 25.8373V31.1653H233.748V26.1733C233.748 25.0373 233.3 24.4933 232.276 24.4933C231.284 24.4933 230.532 25.1013 230.532 26.3333V31.1653H228.212ZM241.191 31.3413C239.159 31.3413 237.559 29.8853 237.559 27.1013V26.9733C237.559 24.2213 239.143 22.6053 241.239 22.6053C242.583 22.6053 243.415 23.1973 243.879 24.0453V19.0053H246.183V31.1653H243.879V29.7733C243.447 30.6213 242.423 31.3413 241.191 31.3413ZM241.879 29.5333C243.095 29.5333 243.943 28.7173 243.943 27.0213V26.8933C243.943 25.2293 243.207 24.3813 241.943 24.3813C240.647 24.3813 239.927 25.2613 239.927 26.9253V27.0533C239.927 28.7173 240.727 29.5333 241.879 29.5333ZM251.102 31.1653L254.862 19.7253H258.238L261.95 31.1653H259.246L258.462 28.6213H254.318L253.534 31.1653H251.102ZM256.398 21.8373L254.878 26.7813H257.902L256.398 21.8373ZM263.369 31.1653V19.0053H265.673V31.1653H263.369ZM270.574 31.3413C268.942 31.3413 267.726 30.3813 267.726 28.1893V22.7973H270.03V27.8693C270.03 29.0053 270.494 29.5493 271.486 29.5493C272.462 29.5493 273.23 28.9413 273.23 27.7093V22.7973H275.534V31.1653H273.23V29.8533C272.798 30.7013 271.95 31.3413 270.574 31.3413ZM277.587 31.1653V22.7973H279.907V24.0773C280.323 23.2933 281.219 22.6053 282.467 22.6053C283.571 22.6053 284.403 23.0693 284.803 24.0613C285.475 23.0533 286.562 22.6053 287.619 22.6053C289.171 22.6053 290.371 23.5813 290.371 25.8053V31.1653H288.067V26.0613C288.067 24.9893 287.587 24.5093 286.755 24.5093C285.859 24.5093 285.139 25.0853 285.139 26.2213V31.1653H282.835V26.0613C282.835 24.9893 282.339 24.5093 281.523 24.5093C280.627 24.5093 279.907 25.0853 279.907 26.2213V31.1653H277.587ZM292.352 31.1653V22.7973H294.672V24.1253C295.088 23.2933 296 22.6053 297.392 22.6053C299.04 22.6053 300.208 23.5973 300.208 25.8373V31.1653H297.888V26.1733C297.888 25.0373 297.44 24.4933 296.416 24.4933C295.424 24.4933 294.672 25.1013 294.672 26.3333V31.1653H292.352ZM302.26 31.1653V22.7973H304.564V31.1653H302.26ZM303.396 21.6613C302.66 21.6613 302.084 21.1173 302.084 20.3973C302.084 19.6773 302.66 19.1333 303.396 19.1333C304.148 19.1333 304.724 19.6773 304.724 20.3973C304.724 21.1173 304.148 21.6613 303.396 21.6613Z" fill="#4D4D4D"/>
<path d="M62 21.3208V22.2922L75.98 28.424L89.96 22.2922V21.3208L75.98 15.189L62 21.3208Z" stroke="#4D4D4D" stroke-width="2"/>
<path d="M67.7305 25.0852V33.2003L75.9805 32.1985L84.2205 33.2003V25.0852" stroke="#4D4D4D" stroke-width="2"/>
<path d="M62 31.2874V21.8975" stroke="#4D4D4D" stroke-width="2" stroke-linejoin="round"/>
</svg>
